# xmcd
#
# Track frame offsets:
#	150
#	130365
#	141391
#	149003
#	156066
#	162815
#	169647
#	178872
#	189819
#	199494
#	209319
#	220266
#	229152
#	238030
#	248234
#	258058
#	267799
#	282267
#
# Disc length: 3922 seconds
#
# Revision: 1
# Processed by: cddbd v1.5.1PL0 Copyright (c) Steve Scherf et al.
# Submitted via: CDex 1.50Beta5
#
DISCID=110f5012
DTITLE=Kate(TYPE-MOON) - 歌月十夜（月箱版）
DYEAR=2003
DGENRE=Anime
TTITLE0=データ トラック
TTITLE1=月夜
TTITLE2=予感
TTITLE3=休息
TTITLE4=衝撃(重複トラック)
TTITLE5=衝撃
TTITLE6=季節(Sunrise Style)
TTITLE7=季節(Sunset Style)
TTITLE8=歌月
TTITLE9=少女
TTITLE10=死線
TTITLE11=感情
TTITLE12=灯火
TTITLE13=日向
TTITLE14=幻舞
TTITLE15=妖夏
TTITLE16=月姫
TTITLE17=訣別
EXTD=
EXTT0=
EXTT1=
EXTT2=
EXTT3=
EXTT4=
EXTT5=
EXTT6=
EXTT7=
EXTT8=
EXTT9=
EXTT10=
EXTT11=
EXTT12=
EXTT13=
EXTT14=
EXTT15=
EXTT16=
EXTT17=
PLAYORDER=
